<svg width="253" height="62" viewBox="0 0 253 62" fill="none" xmlns="http://www.w3.org/2000/svg">
<path d="M95.3462 24.389C94.7122 23.438 93.8669 22.804 92.8102 22.2756C91.7536 21.853 90.8026 21.536 89.6402 21.536C88.3723 21.536 87.2099 21.7473 86.1532 22.2756C85.0966 22.804 84.1456 23.438 83.4059 24.389C82.6663 25.2343 82.0323 26.291 81.6096 27.4533C81.1869 28.6156 80.9756 29.7779 80.9756 31.0459C80.9756 32.4196 81.1869 33.5819 81.6096 34.7442C82.0323 35.9066 82.6663 36.8576 83.4059 37.7029C84.1456 38.5482 85.0966 39.1822 86.1532 39.7105C87.2099 40.2389 88.3723 40.4502 89.6402 40.4502C91.0139 40.4502 92.2819 40.1332 93.3386 39.6049C94.3952 39.0766 95.3462 38.2312 96.1915 37.2802L98.1992 38.9709C97.1425 40.3445 95.9802 41.2955 94.5009 42.0352C93.0215 42.6692 91.4366 42.9862 89.6402 42.9862C88.0553 42.9862 86.4702 42.6692 85.0966 42.0352C83.7229 41.4012 82.4549 40.5559 81.3982 39.4992C80.3416 38.4425 79.4963 37.1746 78.9679 35.6952C78.3339 34.2159 78.1226 32.6309 78.1226 30.9403C78.1226 29.2496 78.4396 27.6646 78.9679 26.291C79.4963 24.8116 80.3416 23.5436 81.3982 22.487C82.4549 21.4303 83.6172 20.585 85.0966 19.951C86.4702 19.317 88.0552 19 89.7459 19C91.3309 19 92.8102 19.317 94.1839 19.8453C95.5575 20.3737 96.8255 21.3246 97.7765 22.5926L95.3462 24.389Z" fill="#003882"/>
<path d="M115 43.0919C113.309 43.0919 111.724 42.7749 110.245 42.1409C108.766 41.5069 107.498 40.6615 106.441 39.6049C105.384 38.5482 104.539 37.2802 104.011 35.8009C103.377 34.3216 103.166 32.7366 103.166 31.0459C103.166 29.3553 103.483 27.7703 104.011 26.291C104.645 24.8116 105.384 23.5436 106.441 22.487C107.498 21.4303 108.766 20.585 110.245 19.951C111.724 19.317 113.309 19 115 19C116.691 19 118.276 19.317 119.755 19.951C121.234 20.585 122.502 21.4303 123.559 22.487C124.616 23.5436 125.461 24.8116 125.989 26.291C126.623 27.7703 126.835 29.3553 126.835 31.0459C126.835 32.7366 126.518 34.3216 125.989 35.8009C125.355 37.2802 124.616 38.5482 123.559 39.6049C122.502 40.6615 121.234 41.5069 119.755 42.1409C118.276 42.7749 116.691 43.0919 115 43.0919ZM115 40.5559C116.374 40.5559 117.536 40.3445 118.593 39.8162C119.649 39.2879 120.6 38.6539 121.446 37.8086C122.185 36.9632 122.819 35.9066 123.242 34.8499C123.665 33.6876 123.876 32.5253 123.876 31.1516C123.876 29.8836 123.665 28.6156 123.242 27.4533C122.819 26.291 122.185 25.34 121.446 24.4946C120.706 23.6493 119.755 23.0153 118.593 22.487C117.536 21.9587 116.268 21.7473 115 21.7473C113.626 21.7473 112.464 21.9587 111.407 22.487C110.351 23.0153 109.4 23.6493 108.554 24.4946C107.815 25.34 107.181 26.3966 106.758 27.4533C106.335 28.6156 106.124 29.7779 106.124 31.1516C106.124 32.4196 106.335 33.6876 106.758 34.8499C107.181 36.0122 107.815 36.9632 108.554 37.8086C109.294 38.6539 110.245 39.2879 111.407 39.8162C112.464 40.3445 113.626 40.5559 115 40.5559Z" fill="#003882"/>
<path d="M133.597 19.7397H137.613L145.326 37.5973H145.432L153.146 19.7397H157.055V42.4579H154.308V23.4381H154.202L146.066 42.4579H144.481L136.345 23.4381H136.239V42.4579H133.492V19.7397H133.597Z" fill="#003882"/>
<path d="M165.086 19.7397H171.848C172.905 19.7397 173.856 19.8454 174.807 20.0567C175.758 20.2681 176.603 20.5851 177.343 21.1134C178.083 21.6417 178.717 22.2757 179.139 23.0154C179.562 23.8607 179.773 24.8117 179.773 25.974C179.773 27.242 179.562 28.193 179.034 29.0384C178.611 29.8837 177.977 30.5177 177.237 30.9404C176.498 31.363 175.652 31.7857 174.807 31.8913C173.962 32.1027 173.116 32.2083 172.271 32.2083H167.727V42.4579H164.98V19.7397H165.086ZM167.727 29.778H172.271C173.645 29.778 174.701 29.461 175.547 28.827C176.392 28.193 176.815 27.242 176.815 25.974C176.815 24.706 176.392 23.7551 175.547 23.1211C174.701 22.4871 173.645 22.1701 172.271 22.1701H167.727V29.778Z" fill="#003882"/>
<path d="M191.502 19.7397H194.038L203.654 42.4579H200.484L198.159 36.8576H186.853L184.528 42.4579H181.464L191.502 19.7397ZM192.77 23.2267L188.015 34.4273H197.314L192.77 23.2267Z" fill="#003882"/>
<path d="M209.149 19.7397H212.53L225.738 38.654H225.844V19.7397H228.591V42.4579H225.21L212.002 23.5437H211.896V42.4579H209.149V19.7397Z" fill="#003882"/>
<path d="M241.905 32.631L233.452 19.7397H236.833L243.173 29.9894L249.724 19.7397H253L244.547 32.631V42.4579H241.799V32.631H241.905Z" fill="#003882"/>
<path d="M58.6194 30.5535C58.6194 30.8724 58.6194 31.3827 58.6194 31.8292V31.893C58.6194 32.0844 58.6194 32.2119 58.6194 32.3395C58.6194 32.5309 58.6194 32.7222 58.6194 32.9136C58.4918 37.6975 57.7902 41.9074 56.5782 45.4156C55.3663 48.9877 53.7079 51.9218 51.4754 54.2819C49.4342 56.4506 47.0741 58.1091 44.2675 59.3848C41.4609 60.5967 38.3354 61.4259 34.6996 61.7449H34.6358C33.4239 61.8724 32.1482 61.9362 30.8087 61.9362H27.8107C23.2181 61.9362 19.1996 61.2984 15.819 60.0226C12.3745 58.7469 9.50412 56.8971 7.14404 54.3457C4.78396 51.858 2.99797 48.6687 1.78604 44.8416C0.574105 40.9506 0 36.4218 0 31.1276C0 25.8333 0.637891 21.177 1.78604 17.286C2.99797 13.3951 4.78396 10.2058 7.14404 7.65432C9.50412 5.10288 12.3745 3.1893 15.819 1.91358C18.9445 0.765432 22.5165 0.127572 26.535 0C25.8971 0.255144 25.1955 0.510286 24.6214 0.76543C21.6235 2.10494 19.0082 3.89095 16.8395 6.25103C14.3519 8.86626 12.4383 12.1831 11.1626 16.1379C9.88683 20.0926 9.24899 24.6214 9.1852 29.7881C9.1852 30.107 9.1852 30.4259 9.1852 30.8086C9.1852 31.1914 9.1852 31.5103 9.1852 31.8292C9.24899 34.5082 9.50414 36.9321 9.95064 39.1008C10.142 39.93 10.3333 40.7593 10.5247 41.5247C11.2263 43.8848 12.2469 45.9259 13.6502 47.4568C15.1173 49.179 17.0947 50.5185 19.5185 51.3477C20.6029 51.7305 21.8148 52.0494 23.0905 52.2407C23.1543 52.2407 23.2819 52.3045 23.3457 52.3045C23.4095 52.3045 23.4733 52.3045 23.5371 52.3045C24.8766 52.4959 26.2799 52.6235 27.8107 52.6235H30.8087C31.1914 52.6235 31.5741 52.6235 31.893 52.6235C32.9774 52.6235 34.0617 52.4959 35.0185 52.3683C37.1235 52.0494 39.0371 51.5391 40.6955 50.7099C42.3539 49.8807 43.7572 48.7963 44.9691 47.4568C46.5 45.7346 47.5844 43.4383 48.3498 40.6955C49.0515 37.9527 49.4342 34.6996 49.4342 31C49.4342 27.3004 49.1153 24.0473 48.3498 21.3045C47.6482 18.5617 46.5638 16.2654 45.0329 14.4794C43.8848 13.1399 42.4815 12.0556 40.823 11.2263C40.7593 11.2263 40.6955 11.1626 40.6317 11.1626H41.9712C43.4383 11.1626 44.8416 11.2901 46.1173 11.4177C46.1811 11.4177 46.1811 11.4177 46.2449 11.4177C46.3086 11.4177 46.4362 11.4815 46.5 11.4815C46.6914 11.5453 46.8827 11.5453 47.1379 11.6091C47.2654 11.6091 47.393 11.6728 47.5206 11.6728C47.5844 11.6728 47.5844 11.6728 47.6482 11.6728H47.712C47.7757 11.6728 47.8395 11.6728 47.9033 11.7366C48.0308 11.7366 48.1584 11.8004 48.2222 11.8004C48.5411 11.8642 48.7963 11.9918 49.1152 12.0556C49.179 12.0556 49.2428 12.1193 49.3066 12.1193C49.498 12.1831 49.6893 12.2469 49.8807 12.3107C51.9856 13.0761 53.644 14.2243 54.9197 15.6914C56.1317 17.1584 57.0885 19.072 57.7901 21.4321C57.9177 21.9424 58.1091 22.5165 58.2367 23.1543C58.5556 24.8128 58.7469 26.6626 58.8745 28.7037C58.8745 28.8951 58.8745 29.0864 58.8745 29.2778C58.8745 29.4053 58.8745 29.5329 58.8745 29.7243C58.6194 30.0432 58.6194 30.2346 58.6194 30.5535Z" fill="url(#paint0_linear_202_159)"/>
<path d="M69.7819 30.8725C69.7819 36.1667 69.144 40.8231 67.9958 44.714C66.7839 48.605 64.9979 51.7943 62.6379 54.3457C60.2778 56.8972 57.4074 58.8107 53.9629 60.0865C50.8374 61.2346 47.2016 61.8725 43.1193 62C43.8209 61.7449 44.4588 61.4898 45.1605 61.1708C48.1584 59.8313 50.7736 57.9815 52.9423 55.6214C55.3662 53.07 57.216 49.8169 58.4279 46.0535C59.7036 42.2902 60.4053 37.9527 60.5329 32.9774C60.5329 32.7861 60.5329 32.5947 60.5329 32.3396C60.5329 32.1482 60.5329 32.0206 60.5329 31.8931V31.7655C60.5329 31.319 60.5329 30.8087 60.5329 30.4898C60.5329 30.1708 60.5329 30.0433 60.5329 29.8519C60.5329 29.7243 60.5329 29.533 60.5329 29.4054C60.5329 29.214 60.5329 28.9589 60.5329 28.8313C60.4053 25.642 60.0226 22.8992 59.2572 20.4754C58.5555 18.1153 57.5349 16.0741 56.1316 14.5433C54.6646 12.821 52.6872 11.4815 50.2634 10.6523C47.9033 9.82309 45.0967 9.37659 41.9074 9.37659H38.9094C37.4423 9.37659 36.0391 9.44038 34.7633 9.63173C32.6584 9.95066 30.7448 10.461 29.0864 11.2902C27.428 12.1194 26.0247 13.2038 24.8127 14.5433C23.2819 16.2655 22.1975 18.5618 21.4321 21.3046C20.7304 24.0474 20.3477 27.3005 20.3477 31.0001C20.3477 34.6996 20.6667 37.9527 21.4321 40.6955C22.1337 43.4383 23.2181 45.7346 24.749 47.5206C25.8971 48.8601 27.3004 49.9445 28.9588 50.7737C29.0226 50.7737 29.0864 50.8375 29.1502 50.8375H27.7469C24.7489 50.8375 22.1975 50.4548 20.0926 49.6893C17.9876 48.9239 16.3292 47.7758 15.0535 46.3087C13.8415 44.8416 12.8848 42.928 12.1831 40.568C11.4815 38.1441 11.0988 35.2737 11.035 31.9568C11.035 31.6379 11.035 31.319 11.035 31.0001C11.035 30.6811 11.035 30.3622 11.035 30.0433C11.0988 25.0042 11.7366 20.6667 12.9486 16.9671C14.1605 13.2675 15.8827 10.2058 18.179 7.78194C20.2201 5.677 22.5802 3.95478 25.3868 2.74285C28.1934 1.53091 31.3189 0.701691 34.9547 0.382761C36.2304 0.255189 37.5699 0.191406 38.9094 0.191406H41.9074C46.5 0.191406 50.5185 0.829266 53.8991 2.10499C57.3436 3.38071 60.2139 5.2305 62.574 7.78194C63.7222 9.05766 64.8065 10.461 65.6995 12.0556C66.5926 13.6503 67.358 15.3725 67.9321 17.3498C69.2078 21.0494 69.7819 25.5782 69.7819 30.8725Z" fill="url(#paint1_linear_202_159)"/>
<defs>
<linearGradient id="paint0_linear_202_159" x1="29.4373" y1="53" x2="29.4373" y2="-3.5" gradientUnits="userSpaceOnUse">
<stop stop-color="#003882"/>
<stop offset="1" stop-color="#003882" stop-opacity="0"/>
</linearGradient>
<linearGradient id="paint1_linear_202_159" x1="40.4084" y1="8.5" x2="40.4084" y2="62" gradientUnits="userSpaceOnUse">
<stop stop-color="#003882"/>
<stop offset="1" stop-color="#003882" stop-opacity="0"/>
</linearGradient>
</defs>
</svg>
