<svg width="117" height="80" viewBox="0 0 117 80" fill="none" xmlns="http://www.w3.org/2000/svg">
<path d="M11.4386 67.5789C11.0175 66.9474 10.4562 66.5263 9.7544 66.1754C9.05265 65.8947 8.42107 65.6842 7.64914 65.6842C6.80703 65.6842 6.03507 65.8246 5.33332 66.1754C4.63156 66.5263 4 66.9474 3.50877 67.5789C3.01754 68.1403 2.59648 68.8421 2.31578 69.614C2.03508 70.386 1.89475 71.1579 1.89475 72C1.89475 72.9123 2.03508 73.6842 2.31578 74.4561C2.59648 75.2281 3.01754 75.8596 3.50877 76.4211C4 76.9825 4.63156 77.4035 5.33332 77.7544C6.03507 78.1053 6.80703 78.2456 7.64914 78.2456C8.56142 78.2456 9.40353 78.0351 10.1053 77.6842C10.807 77.3333 11.4386 76.7719 12 76.1404L13.3333 77.2632C12.6316 78.1754 11.8596 78.807 10.8772 79.2982C9.89474 79.7193 8.84212 79.9298 7.64914 79.9298C6.59651 79.9298 5.54384 79.7193 4.63156 79.2982C3.71928 78.8772 2.87718 78.3158 2.17542 77.614C1.47367 76.9123 0.912272 76.0702 0.561395 75.0877C0.140342 74.1053 0 73.0526 0 71.9298C0 70.807 0.210518 69.7544 0.561395 68.8421C0.912272 67.8596 1.47367 67.0175 2.17542 66.3158C2.87718 65.614 3.64911 65.0526 4.63156 64.6316C5.54384 64.2105 6.59649 64 7.7193 64C8.77193 64 9.75439 64.2105 10.6667 64.5614C11.579 64.9123 12.421 65.5439 13.0526 66.386L11.4386 67.5789Z" fill="white"/>
<path d="M24.4912 80C23.3684 80 22.3158 79.7895 21.3334 79.3684C20.3509 78.9474 19.5088 78.386 18.807 77.6842C18.1053 76.9825 17.5439 76.1403 17.193 75.1579C16.7719 74.1754 16.6316 73.1228 16.6316 72C16.6316 70.8772 16.8421 69.8246 17.193 68.8421C17.614 67.8596 18.1053 67.0175 18.807 66.3158C19.5088 65.614 20.3509 65.0526 21.3334 64.6316C22.3158 64.2105 23.3684 64 24.4912 64C25.6141 64 26.6667 64.2105 27.6491 64.6316C28.6316 65.0526 29.4737 65.614 30.1754 66.3158C30.8772 67.0175 31.4386 67.8596 31.7895 68.8421C32.2105 69.8246 32.3509 70.8772 32.3509 72C32.3509 73.1228 32.1403 74.1754 31.7895 75.1579C31.3684 76.1403 30.8772 76.9825 30.1754 77.6842C29.4737 78.386 28.6316 78.9474 27.6491 79.3684C26.6667 79.7895 25.6141 80 24.4912 80ZM24.4912 78.3158C25.4035 78.3158 26.1754 78.1754 26.8772 77.8246C27.5789 77.4737 28.2105 77.0526 28.7719 76.4912C29.2632 75.9298 29.6842 75.2281 29.9649 74.5263C30.2456 73.7544 30.386 72.9825 30.386 72.0702C30.386 71.2281 30.2456 70.386 29.9649 69.614C29.6842 68.8421 29.2632 68.2105 28.7719 67.6491C28.2807 67.0877 27.6491 66.6667 26.8772 66.3158C26.1754 65.9649 25.3334 65.8246 24.4912 65.8246C23.579 65.8246 22.807 65.9649 22.1053 66.3158C21.4035 66.6667 20.7719 67.0877 20.2105 67.6491C19.7193 68.2105 19.2982 68.9123 19.0175 69.614C18.7368 70.386 18.5965 71.1579 18.5965 72.0702C18.5965 72.9123 18.7368 73.7544 19.0175 74.5263C19.2982 75.2982 19.7193 75.9298 20.2105 76.4912C20.7017 77.0526 21.3333 77.4737 22.1053 77.8246C22.807 78.1754 23.579 78.3158 24.4912 78.3158Z" fill="white"/>
<path d="M36.8421 64.4912H39.5088L44.6316 76.3509H44.7018L49.8246 64.4912H52.4211V79.5789H50.5965V66.9474H50.5263L45.1228 79.5789H44.0702L38.6667 66.9474H38.5965V79.5789H36.772V64.4912H36.8421Z" fill="white"/>
<path d="M57.7544 64.4912H62.2457C62.9474 64.4912 63.579 64.5614 64.2106 64.7017C64.8422 64.8421 65.4036 65.0526 65.8948 65.4035C66.386 65.7544 66.807 66.1754 67.0877 66.6667C67.3685 67.2281 67.5088 67.8596 67.5088 68.6316C67.5088 69.4737 67.3685 70.1052 67.0176 70.6667C66.7369 71.2281 66.3158 71.6491 65.8246 71.9298C65.3334 72.2105 64.772 72.4912 64.2106 72.5614C63.6492 72.7017 63.0877 72.7719 62.5263 72.7719H59.5088V79.5789H57.6843V64.4912H57.7544ZM59.5088 71.1579H62.5263C63.4386 71.1579 64.1404 70.9474 64.7018 70.5263C65.2632 70.1052 65.5439 69.4737 65.5439 68.6316C65.5439 67.7895 65.2632 67.1579 64.7018 66.7368C64.1404 66.3158 63.4386 66.1052 62.5263 66.1052H59.5088V71.1579Z" fill="white"/>
<path d="M75.2983 64.4912H76.9825L83.3685 79.5789H81.2632L79.7193 75.8596H72.2106L70.6667 79.5789H68.6317L75.2983 64.4912ZM76.1404 66.807L72.9825 74.2456H79.158L76.1404 66.807Z" fill="white"/>
<path d="M87.0176 64.4912H89.2632L98.0351 77.0526H98.1053V64.4912H99.9299V79.5789H97.6842L88.9123 67.0175H88.8421V79.5789H87.0176V64.4912Z" fill="white"/>
<path d="M108.772 73.0526L103.158 64.4912H105.404L109.614 71.2982L113.965 64.4912H116.14L110.526 73.0526V79.5789H108.702V73.0526H108.772Z" fill="white"/>
<path d="M77.2737 24.6399C77.2737 24.8971 77.2737 25.3086 77.2737 25.6687V25.7202C77.2737 25.8745 77.2737 25.9774 77.2737 26.0802C77.2737 26.2346 77.2737 26.3889 77.2737 26.5432C77.1708 30.4012 76.605 33.7963 75.6276 36.6255C74.6502 39.5062 73.3128 41.8724 71.5124 43.7757C69.8663 45.5247 67.963 46.8621 65.6996 47.8909C63.4362 48.8683 60.9156 49.537 57.9836 49.7942H57.9321C56.9548 49.8971 55.926 49.9486 54.8457 49.9486H52.428C48.7243 49.9486 45.4836 49.4342 42.7572 48.4054C39.9794 47.3765 37.6646 45.8848 35.7613 43.8272C33.858 41.821 32.4177 39.249 31.4404 36.1626C30.463 33.0247 30 29.3724 30 25.1029C30 20.8333 30.5144 17.0782 31.4404 13.9403C32.4177 10.8025 33.858 8.23045 35.7613 6.17284C37.6646 4.11523 39.9794 2.57202 42.7572 1.54321C45.2778 0.617284 48.1585 0.102881 51.3992 0C50.8848 0.205761 50.3189 0.411521 49.856 0.617282C47.4383 1.69753 45.3292 3.13786 43.5803 5.04115C41.5741 7.15021 40.0309 9.8251 39.0021 13.0144C37.9733 16.2037 37.4589 19.856 37.4074 24.0226C37.4074 24.2798 37.4074 24.537 37.4074 24.8457C37.4074 25.1543 37.4074 25.4115 37.4074 25.6687C37.4589 27.8292 37.6646 29.784 38.0247 31.5329C38.179 32.2016 38.3333 32.8704 38.4877 33.4877C39.0535 35.3909 39.8766 37.037 41.0082 38.2716C42.1914 39.6605 43.786 40.7407 45.7408 41.4095C46.6152 41.7181 47.5926 41.9753 48.6214 42.1296C48.6728 42.1296 48.7757 42.1811 48.8272 42.1811C48.8786 42.1811 48.9301 42.1811 48.9815 42.1811C50.0617 42.3354 51.1934 42.4383 52.428 42.4383H54.8457C55.1543 42.4383 55.463 42.4383 55.7202 42.4383C56.5947 42.4383 57.4691 42.3354 58.2408 42.2325C59.9383 41.9753 61.4815 41.5638 62.819 40.8951C64.1564 40.2263 65.2881 39.3518 66.2654 38.2716C67.5 36.8827 68.3745 35.0309 68.9918 32.8189C69.5576 30.607 69.8663 27.9835 69.8663 25C69.8663 22.0165 69.6091 19.393 68.9918 17.1811C68.4259 14.9691 67.5514 13.1173 66.3169 11.677C65.3909 10.5967 64.2593 9.72222 62.9218 9.0535C62.8704 9.0535 62.8189 9.00206 62.7675 9.00206H63.8478C65.0309 9.00206 66.1626 9.10494 67.1914 9.20782C67.2428 9.20782 67.2428 9.20782 67.2942 9.20782C67.3457 9.20782 67.4486 9.25926 67.5 9.25926C67.6543 9.3107 67.8087 9.3107 68.0144 9.36214C68.1173 9.36214 68.2202 9.41358 68.323 9.41358C68.3745 9.41358 68.3745 9.41358 68.426 9.41358H68.4774C68.5288 9.41358 68.5802 9.41358 68.6317 9.46502C68.7346 9.46502 68.8374 9.51646 68.8889 9.51646C69.1461 9.5679 69.3519 9.67078 69.6091 9.72222C69.6605 9.72222 69.712 9.77366 69.7634 9.77366C69.9177 9.8251 70.0721 9.87654 70.2264 9.92799C71.9239 10.5453 73.2613 11.4712 74.2901 12.6543C75.2675 13.8374 76.0391 15.3807 76.6049 17.2839C76.7078 17.6955 76.8622 18.1584 76.965 18.6728C77.2222 20.0103 77.3766 21.5021 77.4794 23.1481C77.4794 23.3025 77.4794 23.4568 77.4794 23.6111C77.4794 23.714 77.4794 23.8169 77.4794 23.9712C77.2737 24.2284 77.2737 24.3827 77.2737 24.6399Z" fill="url(#paint0_linear_202_331)"/>
<path d="M86.2757 24.8971C86.2757 29.1666 85.7613 32.9218 84.8353 36.0596C83.858 39.1975 82.4177 41.7695 80.5144 43.8271C78.6111 45.8847 76.2962 47.428 73.5185 48.4568C70.9979 49.3827 68.0658 49.8971 64.7736 50C65.3395 49.7942 65.8539 49.5884 66.4197 49.3312C68.8374 48.251 70.9465 46.7592 72.6954 44.8559C74.6502 42.7983 76.1419 40.1749 77.1193 37.1399C78.1481 34.1049 78.714 30.607 78.8169 26.5946C78.8169 26.4403 78.8169 26.286 78.8169 26.0802C78.8169 25.9259 78.8169 25.823 78.8169 25.7201V25.6173C78.8169 25.2572 78.8169 24.8457 78.8169 24.5885C78.8169 24.3313 78.8169 24.2284 78.8169 24.074C78.8169 23.9712 78.8169 23.8168 78.8169 23.714C78.8169 23.5596 78.8169 23.3539 78.8169 23.251C78.714 20.679 78.4053 18.4671 77.788 16.5123C77.2222 14.609 76.3991 12.9629 75.2675 11.7284C74.0843 10.3395 72.4897 9.25923 70.535 8.59051C68.6317 7.92178 66.3683 7.5617 63.7963 7.5617H61.3786C60.1954 7.5617 59.0638 7.61314 58.0349 7.76746C56.3374 8.02466 54.7942 8.43619 53.4568 9.10491C52.1193 9.77363 50.9876 10.6481 50.0103 11.7284C48.7757 13.1173 47.9012 14.9691 47.2839 17.181C46.7181 19.393 46.4094 22.0164 46.4094 25C46.4094 27.9835 46.6667 30.607 47.2839 32.8189C47.8498 35.0308 48.7243 36.8827 49.9588 38.323C50.8848 39.4033 52.0164 40.2778 53.3539 40.9465C53.4053 40.9465 53.4568 40.9979 53.5082 40.9979H52.3765C49.9588 40.9979 47.9012 40.6893 46.2037 40.072C44.5061 39.4547 43.1687 38.5288 42.1399 37.3457C41.1625 36.1625 40.3909 34.6193 39.8251 32.716C39.2592 30.7613 38.9506 28.4465 38.8992 25.7716C38.8992 25.5144 38.8992 25.2572 38.8992 25C38.8992 24.7428 38.8992 24.4856 38.8992 24.2284C38.9506 20.1646 39.465 16.6666 40.4424 13.6831C41.4197 10.6996 42.8086 8.23042 44.6605 6.27569C46.3066 4.57816 48.2099 3.18928 50.4732 2.21191C52.7366 1.23454 55.2572 0.565817 58.1893 0.308616C59.2181 0.205735 60.2983 0.154297 61.3786 0.154297H63.7963C67.5 0.154297 70.7407 0.6687 73.467 1.69751C76.2448 2.72631 78.5596 4.21808 80.4629 6.27569C81.3888 7.3045 82.2633 8.43619 82.9835 9.7222C83.7037 11.0082 84.321 12.3971 84.7839 13.9917C85.8127 16.9753 86.2757 20.6275 86.2757 24.8971Z" fill="url(#paint1_linear_202_331)"/>
<defs>
<linearGradient id="paint0_linear_202_331" x1="53.7397" y1="42.7419" x2="53.7397" y2="-2.82258" gradientUnits="userSpaceOnUse">
<stop stop-color="white"/>
<stop offset="1" stop-color="#003882" stop-opacity="0"/>
</linearGradient>
<linearGradient id="paint1_linear_202_331" x1="62.5874" y1="6.85478" x2="62.5874" y2="50" gradientUnits="userSpaceOnUse">
<stop stop-color="white"/>
<stop offset="1" stop-color="#003882" stop-opacity="0"/>
</linearGradient>
</defs>
</svg>
