<svg width="25" height="19" viewBox="0 0 25 19" fill="none" xmlns="http://www.w3.org/2000/svg">
    <path d="M1.19995 9.6001L0.457169 9.30299C0.380879 9.49371 0.380879 9.70648 0.457169 9.89721L1.19995 9.6001ZM23.5999 9.6001L24.3427 9.89721C24.419 9.70648 24.419 9.49371 24.3427 9.30298L23.5999 9.6001ZM12.3999 16.8001C8.69751 16.8001 6.09773 14.9573 4.39457 13.0649C3.54244 12.1181 2.92493 11.1686 2.52097 10.4557C2.31944 10.1 2.1723 9.80551 2.0767 9.60271C2.02892 9.50138 1.99411 9.42314 1.97189 9.37186C1.96078 9.34622 1.95282 9.32734 1.94798 9.31569C1.94556 9.30987 1.94391 9.30586 1.94304 9.30372C1.9426 9.30265 1.94236 9.30205 1.94231 9.30193C1.94228 9.30186 1.94231 9.30192 1.94238 9.3021C1.94241 9.30218 1.9425 9.30241 1.94252 9.30245C1.94262 9.3027 1.94273 9.30299 1.19995 9.6001C0.457169 9.89721 0.457307 9.89755 0.457456 9.89792C0.457523 9.89809 0.457686 9.8985 0.457819 9.89883C0.458085 9.89949 0.458401 9.90027 0.458767 9.90118C0.459499 9.90299 0.460431 9.90529 0.461563 9.90807C0.463828 9.91362 0.466895 9.92108 0.470772 9.9304C0.478524 9.94903 0.489515 9.97507 0.503796 10.008C0.532354 10.0739 0.574102 10.1676 0.629454 10.285C0.740098 10.5197 0.905462 10.8501 1.12893 11.2445C1.57496 12.0316 2.25745 13.0821 3.2053 14.1353C5.10213 16.2429 8.10234 18.4001 12.3999 18.4001V16.8001ZM1.19995 9.6001C1.94273 9.89721 1.94262 9.89749 1.94252 9.89774C1.9425 9.89779 1.94241 9.89801 1.94238 9.8981C1.94231 9.89827 1.94228 9.89833 1.94231 9.89827C1.94236 9.89814 1.9426 9.89754 1.94304 9.89647C1.94391 9.89433 1.94556 9.89032 1.94798 9.8845C1.95282 9.87286 1.96078 9.85397 1.97189 9.82834C1.99411 9.77705 2.02892 9.69882 2.0767 9.59748C2.1723 9.39468 2.31944 9.10015 2.52097 8.74451C2.92493 8.03163 3.54244 7.08209 4.39457 6.13527C6.09773 4.24287 8.69751 2.4001 12.3999 2.4001V0.800098C8.10234 0.800098 5.10213 2.95733 3.2053 5.06493C2.25745 6.1181 1.57496 7.16857 1.12893 7.95569C0.905462 8.35004 0.740098 8.68051 0.629454 8.91521C0.574102 9.03263 0.532354 9.12627 0.503796 9.19217C0.489515 9.22513 0.478524 9.25117 0.470772 9.2698C0.466895 9.27911 0.463828 9.28657 0.461563 9.29213C0.460431 9.2949 0.459499 9.2972 0.458767 9.29901C0.458401 9.29992 0.458085 9.3007 0.457819 9.30137C0.457686 9.3017 0.457523 9.3021 0.457456 9.30227C0.457307 9.30264 0.457169 9.30299 1.19995 9.6001ZM12.3999 2.4001C16.1023 2.4001 18.7021 4.24287 20.4053 6.13527C21.2574 7.08209 21.875 8.03163 22.2789 8.74451C22.4805 9.10015 22.6276 9.39469 22.7232 9.59748C22.771 9.69882 22.8058 9.77706 22.828 9.82834C22.8391 9.85398 22.8471 9.87286 22.8519 9.8845C22.8543 9.89032 22.856 9.89433 22.8569 9.89647C22.8573 9.89754 22.8575 9.89814 22.8576 9.89827C22.8576 9.89833 22.8576 9.89828 22.8575 9.8981C22.8575 9.89801 22.8574 9.89779 22.8574 9.89775C22.8573 9.89749 22.8572 9.89721 23.5999 9.6001C24.3427 9.30298 24.3426 9.30264 24.3424 9.30226C24.3424 9.3021 24.3422 9.30169 24.3421 9.30136C24.3418 9.3007 24.3415 9.29992 24.3411 9.29901C24.3404 9.2972 24.3395 9.2949 24.3383 9.29212C24.3361 9.28657 24.333 9.27911 24.3291 9.26979C24.3214 9.25116 24.3104 9.22512 24.2961 9.19216C24.2675 9.12626 24.2258 9.03262 24.1704 8.91521C24.0598 8.68051 23.8944 8.35004 23.671 7.95569C23.2249 7.16856 22.5424 6.1181 21.5946 5.06492C19.6977 2.95733 16.6975 0.800098 12.3999 0.800098V2.4001ZM23.5999 9.6001C22.8572 9.30298 22.8573 9.3027 22.8574 9.30245C22.8574 9.3024 22.8575 9.30218 22.8575 9.30209C22.8576 9.30192 22.8576 9.30186 22.8576 9.30192C22.8575 9.30205 22.8573 9.30265 22.8569 9.30372C22.856 9.30586 22.8543 9.30987 22.8519 9.31569C22.8471 9.32733 22.8391 9.34622 22.828 9.37185C22.8058 9.42314 22.771 9.50137 22.7232 9.60271C22.6276 9.80551 22.4805 10.1 22.2789 10.4557C21.875 11.1686 21.2574 12.1181 20.4053 13.0649C18.7021 14.9573 16.1023 16.8001 12.3999 16.8001V18.4001C16.6975 18.4001 19.6977 16.2429 21.5946 14.1353C22.5424 13.0821 23.2249 12.0316 23.671 11.2445C23.8944 10.8502 24.0598 10.5197 24.1704 10.285C24.2258 10.1676 24.2675 10.0739 24.2961 10.008C24.3104 9.97507 24.3214 9.94903 24.3291 9.9304C24.333 9.92109 24.3361 9.91362 24.3383 9.90807C24.3395 9.90529 24.3404 9.903 24.3411 9.90118C24.3415 9.90028 24.3418 9.89949 24.3421 9.89883C24.3422 9.8985 24.3424 9.89809 24.3424 9.89793C24.3426 9.89755 24.3427 9.89721 23.5999 9.6001ZM12.4 12.0001C11.0745 12.0001 9.99995 10.9256 9.99995 9.6001H8.39995C8.39995 11.8092 10.1908 13.6001 12.4 13.6001V12.0001ZM14.7999 9.6001C14.7999 10.9256 13.7254 12.0001 12.4 12.0001V13.6001C14.6091 13.6001 16.3999 11.8092 16.3999 9.6001H14.7999ZM12.4 7.2001C13.7254 7.2001 14.7999 8.27461 14.7999 9.6001H16.3999C16.3999 7.39096 14.6091 5.6001 12.4 5.6001V7.2001ZM12.4 5.6001C10.1908 5.6001 8.39995 7.39096 8.39995 9.6001H9.99995C9.99995 8.27461 11.0745 7.2001 12.4 7.2001V5.6001Z" fill="#222222"/>
</svg>
